# xmcd
#
# Track frame offsets: 
#        150
#        19620
#        44774
#        66176
#        80578
#        96250
#        105601
#        128737
#        143925
#        153989
#        177353
#        199092
#        225581
#        236551
#        261757
#
# Disc length: 3719 seconds
#
# Revision: 2
# Processed by: cddbd v1.5.2PL0 Copyright (c) Steve Scherf et al.
# Submitted via: ExactAudioCopy v1.3
#
DISCID=cc0e850f
DTITLE=Various Artist - 2015 原音精選 The Perfect Sound
DYEAR=2015
DGENRE=Audiophile
TTITLE0=張學友 - 怎麼捨得你
TTITLE1=Erich Kunzel, Cincinnati Pops Orchestra - The Magnificent Seve
TTITLE1=n
TTITLE2=Eva Cassidy - Fields Of Gold
TTITLE3=Nemanja Radulovic (violin), Les Trilles du Diable, Laura Favre
TTITLE3=Kahn (piano) - Brahms - Hungarian Dance No. 1 in G Minor
TTITLE4=林子祥 - 最愛是誰
TTITLE5=Leonard Bernstein, New York Philharmonic - Sunrise From Also S
TTITLE5=prach Zarathustra
TTITLE6=香港純絃 - 獅子山下
TTITLE7=葉蒨文 - 零時十分
TTITLE8=Ennio Morricone and his Orchestra - Gabriel's Oboe
TTITLE9=Neville Marriner, St Martin-in-the-Fields - Rossini String Son
TTITLE9=ata No.1 in G major, Moderato
TTITLE10=Pink Martini - Amado Mio
TTITLE11=Tsuyoshi Yamamoto Trio - What A Wonderful World
TTITLE12=Moipei Quartet - Country Roads
TTITLE13=趙聰 - 春江花月夜
TTITLE14=Eiji Oue, Minnesota Orchestra - Rimsky- Korsakov - Dance of t
TTITLE14=he Tumblers
EXTD=
EXTT0=
EXTT1=
EXTT2=
EXTT3=
EXTT4=
EXTT5=
EXTT6=
EXTT7=
EXTT8=
EXTT9=
EXTT10=
EXTT11=
EXTT12=
EXTT13=
EXTT14=
PLAYORDER=
